<svg xmlns="http://www.w3.org/2000/svg" width="10" viewBox="0 0 14 12" fill="none"><path d="M4.0957 11.4492C3.86523 11.4492 3.66211 11.3613 3.48633 11.1855L0.257812 7.98633C0.175781 7.9082 0.111328 7.81445 0.0644531 7.70508C0.0214844 7.5918 0 7.47656 0 7.35938C0 7.24609 0.0214844 7.13281 0.0644531 7.01953C0.111328 6.90625 0.175781 6.81055 0.257812 6.73242L3.48633 3.54492C3.66211 3.36523 3.86523 3.27539 4.0957 3.27539C4.3418 3.27539 4.54102 3.35352 4.69336 3.50977C4.8457 3.66602 4.92188 3.85938 4.92188 4.08984C4.92188 4.22266 4.89648 4.33789 4.8457 4.43555C4.79492 4.5293 4.73047 4.61523 4.65234 4.69336L3.46875 5.8418L1.98047 7.06641L1.6582 6.61523L3.90234 6.51562H10.8633C11.1328 6.51562 11.3281 6.45508 11.4492 6.33398C11.5703 6.21289 11.6309 6.01367 11.6309 5.73633V2.4668C11.6309 2.19336 11.5703 1.99805 11.4492 1.88086C11.3281 1.75977 11.1328 1.69922 10.8633 1.69922H7.74023C7.49023 1.69922 7.2832 1.61719 7.11914 1.45312C6.95898 1.28516 6.87891 1.08398 6.87891 0.849609C6.87891 0.615234 6.96094 0.416016 7.125 0.251953C7.28906 0.0839844 7.49414 0 7.74023 0H10.9395C11.7598 0 12.3574 0.1875 12.7324 0.5625C13.1074 0.9375 13.2949 1.53516 13.2949 2.35547V5.84766C13.2949 6.67188 13.1074 7.27148 12.7324 7.64648C12.3574 8.02148 11.7598 8.20898 10.9395 8.20898H3.90234L1.6582 8.10938L1.98047 7.65234L3.46875 8.88281L4.65234 10.0371C4.73047 10.1113 4.79492 10.1973 4.8457 10.2949C4.89648 10.3926 4.92188 10.5059 4.92188 10.6348C4.92188 10.8691 4.8457 11.0625 4.69336 11.2148C4.54102 11.3711 4.3418 11.4492 4.0957 11.4492Z" fill="currentColor"></path></svg>